<svg xmlns="http://www.w3.org/2000/svg" viewBox="0 0 171 171"><title>Asset 20</title><g id="Layer_2" data-name="Layer 2"><g id="Layer_1-2" data-name="Layer 1"><circle cx="85.5" cy="85.5" r="85.5" fill="#ebecf0"/><circle cx="85.5" cy="85.5" r="85.5" fill="#fcfbe6" fill-opacity="0.4"/><path d="M85.5,159A73.5,73.5,0,1,1,159,85.5,73.62,73.62,0,0,1,85.5,159Zm0-144A70.5,70.5,0,1,0,156,85.5,70.55,70.55,0,0,0,85.5,15Z" fill="#333"/><path d="M102.8,61.1A18.15,18.15,0,1,1,84.6,43,18.12,18.12,0,0,1,102.8,61.1Z" fill="#333"/><path d="M84.7,85.5A33.72,33.72,0,0,0,51,119.2a8.81,8.81,0,0,0,8.8,8.8h49.7a8.81,8.81,0,0,0,8.8-8.8A33.63,33.63,0,0,0,84.7,85.5Z" fill="#333"/></g></g></svg>